<?xml version="1.0" standalone="no"?>
<!DOCTYPE svg PUBLIC "-//W3C//DTD SVG 20010904//EN"
 "http://www.w3.org/TR/2001/REC-SVG-20010904/DTD/svg10.dtd">
<svg version="1.0" xmlns="http://www.w3.org/2000/svg"
 width="293.000000pt" height="82.000000pt" viewBox="0 0 293.000000 82.000000"
 preserveAspectRatio="xMidYMid meet">
<metadata>
Created by potrace 1.16, written by Peter Selinger 2001-2019
</metadata>
<g transform="translate(0.000000,82.000000) scale(0.100000,-0.100000)"
fill="#000000" stroke="none">
<path d="M2030 515 l0 -305 65 0 65 0 0 305 0 305 -65 0 -65 0 0 -305z"/>
<path d="M140 649 c0 -6 35 -107 77 -225 l78 -214 65 0 65 0 50 135 c29 80 52
130 57 122 4 -6 27 -67 50 -134 l43 -123 66 0 66 0 46 128 c25 70 62 171 81
225 l36 97 -58 0 -58 0 -54 -150 c-29 -83 -56 -148 -59 -145 -3 3 -28 70 -55
148 l-51 142 -53 3 -52 3 -18 -43 c-10 -24 -36 -92 -57 -151 -25 -70 -41 -104
-46 -95 -5 7 -30 75 -56 151 l-47 137 -58 0 c-35 0 -58 -4 -58 -11z"/>
<path d="M1065 636 c-88 -41 -125 -102 -125 -206 0 -72 16 -114 58 -156 44
-45 97 -66 173 -72 77 -5 154 16 188 51 l21 23 -33 32 -33 32 -48 -21 c-63
-28 -127 -20 -168 21 -56 56 -47 60 143 60 l172 0 -6 54 c-6 57 -33 120 -64
148 -66 60 -191 75 -278 34z m187 -103 c14 -14 28 -34 31 -44 5 -18 -2 -19
-104 -19 -99 0 -109 2 -109 18 0 22 35 57 70 71 35 14 80 3 112 -26z"/>
<path d="M1595 636 c-88 -41 -125 -102 -125 -206 0 -72 16 -114 58 -156 44
-45 97 -66 173 -72 77 -5 154 16 188 51 l21 23 -33 32 -33 32 -48 -21 c-63
-28 -127 -20 -168 21 -56 56 -47 60 143 60 l172 0 -6 54 c-6 57 -33 120 -64
148 -66 60 -191 75 -278 34z m187 -103 c14 -14 28 -34 31 -44 5 -18 -2 -19
-104 -19 -99 0 -109 2 -109 18 0 22 35 57 70 71 35 14 80 3 112 -26z"/>
<path d="M2220 651 c0 -5 43 -109 95 -232 91 -210 95 -223 80 -245 -20 -31
-59 -40 -102 -25 -19 7 -36 11 -38 9 -1 -1 -12 -21 -23 -44 l-21 -41 35 -16
c47 -23 140 -22 184 2 19 10 45 32 56 49 17 25 127 273 231 520 l13 32 -63 0
-63 0 -60 -146 c-33 -80 -64 -146 -68 -147 -4 -1 -35 64 -68 146 l-61 147 -63
0 c-35 0 -64 -4 -64 -9z"/>
</g>
</svg>
