<?xml version="1.0" standalone="no"?>
<!DOCTYPE svg PUBLIC "-//W3C//DTD SVG 20010904//EN"
 "http://www.w3.org/TR/2001/REC-SVG-20010904/DTD/svg10.dtd">
<svg version="1.0" xmlns="http://www.w3.org/2000/svg"
 width="215.000000pt" height="72.000000pt" viewBox="0 0 215.000000 72.000000"
 preserveAspectRatio="xMidYMid meet">
<metadata>
Created by potrace 1.16, written by Peter Selinger 2001-2019
</metadata>
<g transform="translate(0.000000,72.000000) scale(0.100000,-0.100000)"
fill="#000000" stroke="none">
<path d="M1530 430 l0 -220 45 0 45 0 0 220 0 220 -45 0 -45 0 0 -220z"/>
<path d="M180 518 c1 -7 25 -78 53 -158 l53 -145 48 0 49 0 34 90 c19 49 35
91 37 92 2 2 18 -39 37 -92 l33 -95 47 0 c35 0 49 4 54 17 18 48 105 292 105
297 0 3 -18 6 -39 6 l-39 0 -37 -106 c-21 -58 -41 -101 -45 -97 -4 4 -22 52
-41 106 l-34 98 -40 -3 -40 -3 -35 -97 c-19 -53 -38 -100 -41 -103 -4 -3 -22
40 -41 97 l-35 103 -41 3 c-30 2 -42 -1 -42 -10z"/>
<path d="M828 510 c-103 -55 -107 -218 -6 -280 65 -39 166 -38 214 3 l25 22
-24 23 c-23 21 -25 22 -60 7 -22 -9 -48 -13 -65 -9 -28 7 -72 41 -72 56 0 4
54 8 120 8 l120 0 0 44 c0 114 -140 185 -252 126z"/>
<path d="M1208 510 c-103 -55 -107 -218 -6 -280 65 -39 166 -38 214 3 l25 22
-24 23 c-23 21 -25 22 -60 7 -22 -9 -48 -13 -65 -9 -28 7 -72 41 -72 56 0 4
54 8 120 8 l120 0 0 44 c0 114 -140 185 -252 126z"/>
<path d="M1673 498 c8 -18 40 -93 71 -166 55 -128 57 -135 40 -153 -19 -21
-45 -24 -73 -10 -15 8 -21 4 -34 -24 -16 -33 -16 -35 4 -46 31 -16 117 -13
145 6 13 8 30 28 39 45 25 49 155 359 155 370 0 7 -16 10 -41 8 l-41 -3 -40
-95 c-21 -52 -43 -99 -47 -103 -5 -5 -28 39 -52 97 l-43 106 -48 0 -48 0 13
-32z"/>
</g>
</svg>
